<?xml version="1.0" encoding="utf-8"?>
<!-- Generator: Adobe Illustrator 23.1.1, SVG Export Plug-In . SVG Version: 6.00 Build 0)  -->
<svg version="1.1" id="Layer_1" xmlns="http://www.w3.org/2000/svg" xmlns:xlink="http://www.w3.org/1999/xlink" x="0px" y="0px"
	 viewBox="0 0 100 100" style="enable-background:new 0 0 100 100;" xml:space="preserve">
<style type="text/css">
	.st0{fill:none;stroke:#354254;stroke-width:3.7667;stroke-linecap:round;stroke-miterlimit:10;}
	.st1{fill:none;stroke:#354254;stroke-width:3.7667;stroke-miterlimit:10;stroke-dasharray:3.7667,3.7667;}
	.st2{fill:#41B9D6;}
</style>
<polygon id="XMLID_4960_" class="st0" points="72.5,6.91 50,13.87 27.5,6.91 5,13.87 5,92.51 27.5,85.55 50,92.51 72.5,85.55 
	95,92.51 95,13.87 "/>
<line id="XMLID_4959_" class="st0" x1="27.5" y1="6.91" x2="27.5" y2="32.2"/>
<line id="XMLID_4958_" class="st0" x1="50" y1="67.22" x2="50" y2="92.51"/>
<line id="XMLID_4957_" class="st0" x1="72.5" y1="6.91" x2="72.5" y2="32.2"/>
<path id="XMLID_4956_" class="st1" d="M10,49.71c0,0,12.81-7.41,17.5-7c6.6,0.58,15.92,13.25,22.5,14c5.35,0.61,20.36-7,20.36-7"/>
<line id="XMLID_4955_" class="st0" x1="79.45" y1="45.63" x2="87.6" y2="53.79"/>
<line id="XMLID_4954_" class="st0" x1="79.45" y1="53.79" x2="87.6" y2="45.63"/>
<polygon class="st2" points="50,18.44 50,18.44 50,18.44 31.87,12.84 31.87,23.32 36.06,19.55 50,24.49 63.94,19.55 68.13,23.32 
	68.13,12.84 "/>
</svg>
