<?xml version="1.0" encoding="utf-8"?>
<!-- Generator: Adobe Illustrator 23.1.1, SVG Export Plug-In . SVG Version: 6.00 Build 0)  -->
<svg version="1.1" id="Layer_1" xmlns="http://www.w3.org/2000/svg" xmlns:xlink="http://www.w3.org/1999/xlink" x="0px" y="0px"
	 viewBox="0 0 100 100" style="enable-background:new 0 0 100 100;" xml:space="preserve">
<style type="text/css">
	.st0{fill:none;stroke:#354254;stroke-width:3.7667;stroke-linecap:round;stroke-miterlimit:10;}
	.st1{fill:#41B9D6;}
</style>
<path class="st0" d="M95,35.66v46.6c0,2.43-1.97,4.41-4.41,4.41H9.41C6.97,86.66,5,84.69,5,82.26v-46.6"/>
<g>
	<g>
		<path class="st0" d="M20.42,21.58c-0.21,0.49-0.33,1.03-0.33,1.6c0,2.3,1.87,4.17,4.17,4.17c2.3,0,4.17-1.87,4.17-4.17
			c0-0.57-0.12-1.11-0.33-1.6"/>
	</g>
	<line class="st0" x1="24.26" y1="23.11" x2="24.26" y2="13.34"/>
</g>
<g>
	<g>
		<path class="st0" d="M79.58,21.58c0.21,0.49,0.33,1.03,0.33,1.6c0,2.3-1.87,4.17-4.17,4.17c-2.3,0-4.17-1.87-4.17-4.17
			c0-0.57,0.12-1.11,0.33-1.6"/>
	</g>
	<line class="st0" x1="75.74" y1="23.11" x2="75.74" y2="13.34"/>
</g>
<line class="st0" x1="71.13" y1="16.05" x2="28.87" y2="16.05"/>
<path class="st0" d="M19.65,16.05H9.41C6.97,16.05,5,18.02,5,20.45v15.2h90v-15.2c0-2.43-1.97-4.41-4.41-4.41H80.35"/>
<g>
	<line class="st0" x1="30.5" y1="45.31" x2="30.5" y2="54.46"/>
	<line class="st0" x1="43.5" y1="45.31" x2="43.5" y2="54.46"/>
	<line class="st0" x1="56.5" y1="45.31" x2="56.5" y2="54.46"/>
	<line class="st0" x1="69.5" y1="45.31" x2="69.5" y2="54.46"/>
	<line class="st0" x1="30.5" y1="67.7" x2="30.5" y2="76.85"/>
	<line class="st0" x1="43.5" y1="67.7" x2="43.5" y2="76.85"/>
	<line class="st0" x1="56.5" y1="67.7" x2="56.5" y2="76.85"/>
	<line class="st0" x1="69.5" y1="67.7" x2="69.5" y2="76.85"/>
</g>
<line class="st0" x1="23.17" y1="61.16" x2="76.83" y2="61.16"/>
<path class="st1" d="M82.56,23.52c-0.21,3.58-3.18,6.42-6.81,6.42c-3.64,0-6.6-2.84-6.81-6.42H31.07c-0.21,3.58-3.18,6.42-6.81,6.42
	s-6.6-2.84-6.81-6.42H8.76v8.38h82.48v-8.38H82.56z"/>
</svg>
