<?xml version="1.0" encoding="utf-8"?>
<!-- Generator: Adobe Illustrator 23.1.1, SVG Export Plug-In . SVG Version: 6.00 Build 0)  -->
<svg version="1.1" id="Layer_1" xmlns="http://www.w3.org/2000/svg" xmlns:xlink="http://www.w3.org/1999/xlink" x="0px" y="0px"
	 viewBox="0 0 100 100" style="enable-background:new 0 0 100 100;" xml:space="preserve">
<style type="text/css">
	.st0{fill:none;stroke:#354254;stroke-width:3.7667;stroke-linecap:round;stroke-miterlimit:10;}
	.st1{fill:#7EBC5B;}
</style>
<path class="st0" d="M72.61,71.64L54.94,50.16c-2.63-2.96-7.25-2.96-9.88,0L26.01,71.92"/>
<path class="st0" d="M95,59.93L81.81,44.14c-1.76-1.97-4.84-1.97-6.6,0L62.48,58.68"/>
<ellipse class="st0" cx="24.26" cy="25.64" rx="10.66" ry="10.66"/>
<line class="st0" x1="24.26" y1="6.59" x2="24.26" y2="10.63"/>
<line class="st0" x1="14.74" y1="9.14" x2="16.76" y2="12.64"/>
<line class="st0" x1="7.77" y1="16.12" x2="11.26" y2="18.13"/>
<line class="st0" x1="5.21" y1="25.64" x2="9.25" y2="25.64"/>
<line class="st0" x1="7.77" y1="35.16" x2="11.26" y2="33.14"/>
<line class="st0" x1="14.74" y1="42.13" x2="16.76" y2="38.63"/>
<line class="st0" x1="24.26" y1="44.68" x2="24.26" y2="40.64"/>
<line class="st0" x1="33.78" y1="42.13" x2="31.76" y2="38.63"/>
<line class="st0" x1="40.75" y1="35.16" x2="37.25" y2="33.14"/>
<line class="st0" x1="43.3" y1="25.64" x2="39.26" y2="25.64"/>
<line class="st0" x1="40.75" y1="16.12" x2="37.25" y2="18.13"/>
<line class="st0" x1="33.78" y1="9.14" x2="31.76" y2="12.64"/>
<path class="st0" d="M5.27,69.4c0,0,20.56-1.46,40,11.98c6.46,4.46,14.19,6.72,22.04,6.72h17.74"/>
<path class="st0" d="M49.51,83.9c0,0,17.8-15.41,45.49-15.41"/>
<path class="st0" d="M5,79.68c0,0,15.58-2.54,36.12,13.73"/>
<path class="st0" d="M67.31,88.09c0,0,7.7-9.14,27.69-9.37"/>
<path class="st1" d="M50,52.1c-0.41,0-1.2,0.11-1.84,0.82L34.94,68.03c0.48,0.12,0.97,0.19,1.47,0.2c2.3,0.03,4.61-1.19,6.82-0.58
	c2.92,0.81,4.32,4.43,7.19,5.41c2.72,0.92,5.54-0.84,7.87-2.52c1.68-1.21,3.36-2.42,5.04-3.64L51.8,52.88
	C51.17,52.2,50.4,52.1,50,52.1z"/>
</svg>
