<?xml version="1.0" encoding="utf-8"?>
<!-- Generator: Adobe Illustrator 23.1.1, SVG Export Plug-In . SVG Version: 6.00 Build 0)  -->
<svg version="1.1" id="Layer_1" xmlns="http://www.w3.org/2000/svg" xmlns:xlink="http://www.w3.org/1999/xlink" x="0px" y="0px"
	 viewBox="0 0 100 100" style="enable-background:new 0 0 100 100;" xml:space="preserve">
<style type="text/css">
	.st0{fill:none;stroke:#354254;stroke-width:3.7667;stroke-linecap:round;stroke-linejoin:round;stroke-miterlimit:10;}
	.st1{fill:none;stroke:#354254;stroke-width:3.7667;stroke-linecap:round;stroke-linejoin:round;}
	.st2{fill:none;stroke:#354254;stroke-width:3.7667;stroke-linecap:round;stroke-linejoin:round;stroke-dasharray:13.4908,12.1418;}
	.st3{fill:#7EBC5B;}
</style>
<path class="st0" d="M68.55,95H31.93c-5.7,0-10.31-4.62-10.31-10.31V39.27c0-15.81,12.82-28.62,28.62-28.62l0,0
	c15.81,0,28.62,12.82,28.62,28.62v45.42C78.86,90.38,74.25,95,68.55,95z"/>
<path class="st1" d="M32.75,29.16c0.59-1.01,1.26-1.97,2-2.86"/>
<path class="st2" d="M39.87,21.93c3.03-1.82,6.58-2.87,10.37-2.87c5,0,9.58,1.82,13.11,4.84"/>
<path class="st1" d="M65.73,26.3c0.75,0.89,1.42,1.85,2,2.86"/>
<path class="st0" d="M33.26,74.27V50.55c0-9.38,7.6-16.98,16.98-16.98l0,0c9.38,0,16.98,7.6,16.98,16.98v23.72"/>
<path class="st3" d="M63.02,57.04v-6.49c0-7.05-5.73-12.78-12.78-12.78S37.46,43.5,37.46,50.55v6.49c3.55-2.7,7.98-4.31,12.78-4.31
	C55.04,52.74,59.47,54.34,63.02,57.04z"/>
<path class="st0" d="M78.87,75.91c-8.09,4.07-17.96,6.46-28.63,6.46c-10.66,0-20.54-2.39-28.63-6.46"/>
<path class="st0" d="M57.55,10.64l1.56-3.6c0.77-1.77,2.85-2.55,4.59-1.71L79.64,13c1.41,0.68,2.18,2.23,1.85,3.77
	c-0.55,2.56-1.69,6.52-3.94,9.79"/>
<path class="st0" d="M42.52,10.82l-1.64-3.77c-0.77-1.77-2.85-2.55-4.59-1.71l-15.94,7.67c-1.41,0.68-2.18,2.23-1.85,3.77
	c0.57,2.69,1.8,6.92,4.28,10.27"/>
</svg>
